name analog
datacolumns 19
datarows 42
range 0.605 0.6255000000000001
endheader
time	ground_force_vx	ground_force_vy	ground_force_vz	ground_force_px	ground_force_py	ground_force_pz	l_ground_force_vx	l_ground_force_vy	l_ground_force_vz	l_ground_force_px	l_ground_force_py	l_ground_force_pz	ground_torque_x	ground_torque_y	ground_torque_z	l_ground_torque_x	l_ground_torque_y	l_ground_torque_z
0.605	-0.0	-0.0	-0.0	-34.232025146484375	113.02135467529295	-999.5624389648438	279.5332946777344	-136.6337432861328	-1347.198486328125	-0.0	-0.0	-0.0	-0.0	-0.0	-0.0	269453.46875	-183781.859375	68756.734375
0.6055	-0.0	-0.0	-0.0	-104.51380157470705	126.2658462524414	-879.7722778320312	108.12019348144533	-114.6694564819336	-1157.08154296875	-0.0	-0.0	-0.0	-0.0	-0.0	-0.0	229423.390625	-136733.96875	31209.490234375
0.606	-0.0	-0.0	-0.0	-141.2495880126953	137.54612731933594	-821.6236572265625	-12.688060760498049	-108.25572204589844	-1017.0042114257812	-0.0	-0.0	-0.0	-0.0	-0.0	-0.0	199276.96875	-101106.6953125	4903.02734375
0.6065	-0.0	-0.0	-0.0	-143.9060821533203	135.34356689453125	-817.5665283203125	-100.26496887207033	-109.6095199584961	-907.4224853515624	-0.0	-0.0	-0.0	-0.0	-0.0	-0.0	176604.625	-74218.5625	-14049.4921875
0.607	-0.0	-0.0	-0.0	-114.63302612304688	122.19778442382812	-832.53955078125	-131.17086791992188	-102.14066314697266	-821.406005859375	-0.0	-0.0	-0.0	-0.0	-0.0	-0.0	159177.375	-55689.95703125	-22505.896484375
0.6075	-0.0	-0.0	-0.0	-81.7707748413086	110.12023162841795	-856.7255249023438	-128.3462677001953	-92.55091857910156	-770.599365234375	-0.0	-0.0	-0.0	-0.0	-0.0	-0.0	148847.484375	-46178.953125	-23994.61328125
0.608	-0.0	-0.0	-0.0	-55.92331314086914	98.66688537597656	-847.8057250976562	-114.04022216796876	-87.51525115966797	-743.7157592773438	-0.0	-0.0	-0.0	-0.0	-0.0	-0.0	143647.640625	-41819.25390625	-22256.302734375
0.6085	-0.0	-0.0	-0.0	-52.62253952026367	92.6626205444336	-815.66943359375	-97.74398803710938	-86.35518646240234	-725.6296997070312	-0.0	-0.0	-0.0	-0.0	-0.0	-0.0	139737.09375	-39643.05078125	-19350.1015625
0.609	-0.0	-0.0	-0.0	-56.00078582763672	87.07061004638672	-785.386962890625	-84.91647338867188	-86.26025390625	-715.7413330078125	-0.0	-0.0	-0.0	-0.0	-0.0	-0.0	137589.640625	-38222.90625	-16735.1171875
0.6095	-0.0	-0.0	-0.0	-48.78711318969727	80.94330596923828	-762.297119140625	-76.46640014648438	-87.66857147216797	-708.5204467773438	-0.0	-0.0	-0.0	-0.0	-0.0	-0.0	136522.46875	-36938.57421875	-14654.9794921875
0.61	-0.0	-0.0	-0.0	-41.95084762573242	79.85926055908203	-746.0027465820312	-68.74282836914062	-87.55741119384766	-711.404296875	-0.0	-0.0	-0.0	-0.0	-0.0	-0.0	136851.046875	-36983.5859375	-13488.216796875
0.6105	-0.0	-0.0	-0.0	-35.29467010498047	81.58495330810547	-730.7723999023438	-63.49826049804688	-85.4415283203125	-718.5086669921875	-0.0	-0.0	-0.0	-0.0	-0.0	-0.0	138633.125	-38080.1953125	-13026.1904296875
0.611	-0.0	-0.0	-0.0	-27.34697914123535	84.95207977294922	-729.0062255859375	-55.37251281738281	-83.62078094482422	-731.6864624023438	-0.0	-0.0	-0.0	-0.0	-0.0	-0.0	141148.109375	-39425.15234375	-12345.365234375
0.6115	-0.0	-0.0	-0.0	-17.36669158935547	85.58672332763672	-734.5715942382812	-44.35013961791992	-80.71988677978516	-740.9896240234375	-0.0	-0.0	-0.0	-0.0	-0.0	-0.0	143660.46875	-41509.68359375	-10838.3017578125
0.612	-0.0	-0.0	-0.0	-8.567488670349121	82.34575653076172	-739.3331298828125	-31.132827758789062	-77.91337585449219	-750.9895629882812	-0.0	-0.0	-0.0	-0.0	-0.0	-0.0	146449.15625	-44041.265625	-8799.6552734375
0.6125	-0.0	-0.0	-0.0	-3.2474846839904785	77.0019302368164	-744.0657348632812	-17.429136276245117	-75.41714477539062	-760.8013916015625	-0.0	-0.0	-0.0	-0.0	-0.0	-0.0	147802.890625	-46044.43359375	-6831.044921875
0.613	-0.0	-0.0	-0.0	-3.2539937496185303	71.79234313964844	-734.7575073242188	-5.974883079528809	-74.04715728759766	-763.4618530273438	-0.0	-0.0	-0.0	-0.0	-0.0	-0.0	148769.65625	-48579.99609375	-4868.7490234375
0.6135	-0.0	-0.0	-0.0	-7.478302478790283	69.13357543945312	-721.379638671875	3.914461374282837	-72.7332992553711	-763.9437255859375	-0.0	-0.0	-0.0	-0.0	-0.0	-0.0	149505.53125	-49777.98046875	-3004.014892578125
0.614	-0.0	-0.0	-0.0	-13.564986228942873	65.39035034179688	-704.5327758789062	11.865174293518066	-71.91597747802734	-761.6307983398438	-0.0	-0.0	-0.0	-0.0	-0.0	-0.0	148939.0625	-51018.23046875	-1518.9324951171875
0.6145	-0.0	-0.0	-0.0	-18.923078536987305	62.10301208496094	-680.4536743164062	17.243162155151367	-71.71720886230469	-756.611572265625	-0.0	-0.0	-0.0	-0.0	-0.0	-0.0	148379.890625	-51369.33203125	-328.5462341308594
0.615	-0.0	-0.0	-0.0	-22.055740356445312	59.261356353759766	-661.5718383789062	21.212890625	-70.63542175292969	-752.4217529296875	-0.0	-0.0	-0.0	-0.0	-0.0	-0.0	147409.53125	-51979.83203125	549.71435546875
0.6155	-0.0	-0.0	-0.0	-21.077903747558597	57.60555648803711	-640.6950073242188	23.20828056335449	-67.99679565429688	-745.3567504882812	-0.0	-0.0	-0.0	-0.0	-0.0	-0.0	146094.859375	-51987.6328125	596.5410766601562
0.616	-0.0	-0.0	-0.0	-19.049949645996094	56.841407775878906	-620.2930297851562	23.042972564697266	-64.96128845214844	-730.99462890625	-0.0	-0.0	-0.0	-0.0	-0.0	-0.0	143747.40625	-50378.7578125	-44.37685775756836
0.6165	-0.0	-0.0	-0.0	-15.334012985229492	56.22856140136719	-605.2999877929688	18.36515617370605	-63.16280746459961	-711.6137084960938	-0.0	-0.0	-0.0	-0.0	-0.0	-0.0	139665.5	-47763.4296875	-1185.9202880859375
0.617	-0.0	-0.0	-0.0	-11.806199073791504	55.23857116699219	-591.0546875	10.91390323638916	-62.80745315551758	-688.3572998046875	-0.0	-0.0	-0.0	-0.0	-0.0	-0.0	134588.265625	-43848.45703125	-2410.978271484375
0.6175	-0.0	-0.0	-0.0	-9.028772354125977	52.86273193359375	-573.2110595703125	2.7528083324432373	-63.21417999267578	-666.14990234375	-0.0	-0.0	-0.0	-0.0	-0.0	-0.0	129285.796875	-40226.44140625	-3447.015625
0.618	-0.0	-0.0	-0.0	-6.710827350616455	51.86292266845703	-557.9014282226562	-3.2575604915618896	-64.33342742919922	-644.9384155273438	-0.0	-0.0	-0.0	-0.0	-0.0	-0.0	125012.1640625	-36941.69140625	-4279.5830078125
0.6185	-0.0	-0.0	-0.0	-5.570351123809815	50.358680725097656	-538.7945556640625	-7.114402294158936	-64.35477447509766	-627.649169921875	-0.0	-0.0	-0.0	-0.0	-0.0	-0.0	121486.6015625	-34527.72265625	-4697.66552734375
0.619	-0.0	-0.0	-0.0	-4.638946533203125	49.30897521972656	-523.56982421875	-10.598773956298828	-63.492794036865234	-612.221435546875	-0.0	-0.0	-0.0	-0.0	-0.0	-0.0	117709.546875	-32507.048828125	-4895.62158203125
0.6195	-0.0	-0.0	-0.0	-3.826207160949707	47.81385040283203	-506.7742614746094	-12.732399940490724	-62.620079040527344	-598.8363037109375	-0.0	-0.0	-0.0	-0.0	-0.0	-0.0	115352.46875	-31013.556640625	-5301.65234375
0.62	-0.0	-0.0	-0.0	-3.1321749687194824	47.59563446044922	-494.3742370605469	-14.32423973083496	-60.775726318359375	-589.3057250976562	-0.0	-0.0	-0.0	-0.0	-0.0	-0.0	113057.4921875	-29502.6640625	-5475.111328125
0.6205	-0.0	-0.0	-0.0	-1.8734207153320312	47.45624542236328	-480.5238952636719	-16.500205993652344	-60.007118225097656	-578.6258544921875	-0.0	-0.0	-0.0	-0.0	-0.0	-0.0	111322.1796875	-28667.6875	-5903.92431640625
0.621	-0.0	-0.0	-0.0	0.6750058531761169	48.029441833496094	-472.401611328125	-19.36989402770996	-58.900299072265625	-571.5611572265625	-0.0	-0.0	-0.0	-0.0	-0.0	-0.0	110235.0859375	-28013.865234375	-6308.54248046875
0.6215	-0.0	-0.0	-0.0	1.634685754776001	48.58821105957031	-464.4697570800781	-21.962949752807617	-58.19376373291016	-568.3379516601562	-0.0	-0.0	-0.0	-0.0	-0.0	-0.0	109079.2421875	-27795.62890625	-6952.43212890625
0.622	-0.0	-0.0	-0.0	3.2721338272094727	48.44876480102539	-457.2674255371094	-23.293210983276367	-57.06595993041992	-566.0549926757812	-0.0	-0.0	-0.0	-0.0	-0.0	-0.0	108840.2734375	-27482.884765625	-7134.40576171875
0.6225	-0.0	-0.0	-0.0	4.390344142913818	48.22905731201172	-448.6280517578125	-23.054643630981445	-56.54339599609375	-564.5381469726562	-0.0	-0.0	-0.0	-0.0	-0.0	-0.0	108457.578125	-27780.974609375	-6900.138671875
0.623	-0.0	-0.0	-0.0	6.019131660461426	47.66591262817383	-441.7160339355469	-21.02445602416992	-55.20105743408203	-562.792724609375	-0.0	-0.0	-0.0	-0.0	-0.0	-0.0	108001.3046875	-28192.658203125	-6344.72216796875
0.6235	-0.0	-0.0	-0.0	6.747050285339356	47.234561920166016	-434.7835693359375	-19.181575775146484	-54.39617919921875	-561.2050170898438	-0.0	-0.0	-0.0	-0.0	-0.0	-0.0	107325.4609375	-28059.236328125	-5848.31396484375
0.624	-0.0	-0.0	-0.0	7.352541446685791	45.65338897705078	-428.2228088378906	-17.66341209411621	-53.36614227294922	-558.2150268554688	-0.0	-0.0	-0.0	-0.0	-0.0	-0.0	106488.96875	-28260.1875	-5543.62890625
0.6245	-0.0	-0.0	-0.0	8.099678039550781	44.67279815673828	-421.79400634765625	-16.500205993652344	-52.826210021972656	-553.8312377929688	-0.0	-0.0	-0.0	-0.0	-0.0	-0.0	105692.8515625	-28500.423828125	-5252.63525390625
0.625	-0.0	-0.0	-0.0	8.66262149810791	43.85215759277344	-416.9598083496094	-15.879230499267578	-52.26682662963867	-547.6248168945312	-0.0	-0.0	-0.0	-0.0	-0.0	-0.0	104755.3046875	-28066.9453125	-5133.39306640625
0.6255000000000001	-0.0	-0.0	-0.0	9.403761863708496	42.89919662475586	-413.6100158691406	-15.219006538391112	-51.53062438964844	-543.6290283203125	-0.0	-0.0	-0.0	-0.0	-0.0	-0.0	103904.9140625	-28025.107421875	-4756.900390625
